<svg width="42" height="42" viewBox="0 0 42 42" fill="none" xmlns="http://www.w3.org/2000/svg">
  <!-- Main Circle -->
  <circle cx="21" cy="21" r="20" stroke="#00FFFF" stroke-width="2"/>

  <!-- Sound Waves - from largest to smallest -->
  <path d="M31.5 17.5c-5.7-3.4-15.2-3.7-20.7-2.1c-.8.3-1.7-.2-2-.9c-.3-.8.2-1.7.9-2c6.3-1.9 16.8-1.5 23.4 2.4c.7.4 1 1.4.5 2.1c-.4.7-1.4.9-2.1.5z" fill="#00FFFF"/>

  <path d="M31.1 22.7c-4.8-2.9-12-4-17.7-2.2c-.7.2-1.4-.2-1.6-.9c-.2-.7.2-1.4.9-1.6c6.4-2 14.3-.7 19.7 2.6c.6.4.8 1.2.4 1.8c-.4.5-1.1.7-1.7.3z" fill="#00FFFF"/>

  <path d="M29.4 27.7c-4-2.4-9-2.9-14.9-1.6c-.6.1-1.1-.2-1.3-.7c-.1-.6.2-1.1.7-1.3c6.5-1.5 12-0.8 16.5 1.9c.5.3.6.9.3 1.4c-.3.4-.9.6-1.3.3z" fill="#00FFFF"/>
</svg>